<?xml version="1.0" encoding="UTF-8" standalone="no"?>
<!-- Created with Inkscape (http://www.inkscape.org/) -->

<svg
   version="1.1"
   id="svg1"
   width="319.20001"
   height="325.60001"
   viewBox="0 0 319.20001 325.60001"
   sodipodi:docname="AVT_Inverse Transparent 399-399.svg"
   inkscape:version="1.4.2 (f4327f4, 2025-05-13)"
   xmlns:inkscape="http://www.inkscape.org/namespaces/inkscape"
   xmlns:sodipodi="http://sodipodi.sourceforge.net/DTD/sodipodi-0.dtd"
   xmlns="http://www.w3.org/2000/svg"
   xmlns:svg="http://www.w3.org/2000/svg">
  <defs
     id="defs1" />
  <sodipodi:namedview
     id="namedview1"
     pagecolor="#ffffff"
     bordercolor="#000000"
     borderopacity="0.25"
     inkscape:showpageshadow="2"
     inkscape:pageopacity="0.0"
     inkscape:pagecheckerboard="0"
     inkscape:deskcolor="#d1d1d1"
     showgrid="false"
     inkscape:zoom="2.3740786"
     inkscape:cx="159.64088"
     inkscape:cy="162.8"
     inkscape:window-width="1920"
     inkscape:window-height="991"
     inkscape:window-x="-9"
     inkscape:window-y="-9"
     inkscape:window-maximized="1"
     inkscape:current-layer="g1" />
  <g
     inkscape:groupmode="layer"
     inkscape:label="Image"
     id="g1">
    <path
       style="fill:#000000;fill-opacity:0.00000048"
       d="M 0,162.8 V 0 h 159.60001 159.6 v 162.8 162.80001 h -159.6 H 0 Z m 169.07624,145.04899 c 1.69193,-0.85761 27.97193,-16.29672 58.4,-34.30914 36.41345,-21.55557 56.17879,-33.7118 57.82519,-35.5641 4.60096,-5.17635 4.52678,-3.57599 3.58972,-77.44569 -0.84649,-66.730578 -0.88265,-67.729432 -2.58234,-71.345362 -0.9481,-2.017 -2.84544,-4.513137 -4.21631,-5.546971 C 280.72163,82.603894 253.51327,67.101377 221.62948,49.18769 168.38931,19.275067 163.29247,16.584118 159.1677,16.210098 c -3.40292,-0.308567 -5.34864,-0.02516 -8.02947,1.169538 -6.4507,2.874719 -114.689487,67.463642 -117.328333,70.012889 -5.451634,5.266531 -5.250557,1.648551 -4.299456,77.360145 0.804833,64.06796 0.946414,68.34114 2.368777,71.49402 0.83203,1.84432 2.549582,4.31294 3.816783,5.48582 3.21771,2.9782 117.233819,66.93042 120.907399,67.81758 3.83144,0.92528 8.56502,0.27969 12.47284,-1.7011 z m -15.41817,-53.15687 c -1.62556,-2.06656 -1.65806,-2.86717 -1.65806,-40.83637 v -38.72847 l 1.8,-1.78383 c 0.99,-0.98111 7.85674,-5.33877 15.25944,-9.68369 14.39214,-8.4473 16.93632,-9.2191 20.06847,-6.08793 1.64463,1.64412 1.67573,2.31935 1.89364,41.11459 0.21919,39.02213 0.20363,39.46579 -1.45806,41.5783 -2.1369,2.71663 -7.10413,2.99465 -9.56349,0.53528 -1.54797,-1.54796 -1.6,-2.66666 -1.6,-34.4 0,-18.04 -0.21295,-32.8 -0.47322,-32.8 -0.26027,0 -3.32027,1.70618 -6.8,3.79151 l -6.32678,3.7915 v 36.2085 c 0,35.14183 -0.0471,36.25563 -1.6,37.80849 -2.44651,2.44651 -7.42652,2.18144 -9.54194,-0.50788 z m -34.46954,-7.18111 C 111.05484,242.84206 103.95,238.45325 103.4,237.7581 c -0.78352,-0.99029 -1,-17.12514 -1,-74.533 0,-65.019471 0.14022,-73.46928 1.24537,-75.047093 0.68495,-0.977903 1.53885,-1.778005 1.89756,-1.778005 0.35871,0 7.06995,-3.78 14.91387,-8.400001 7.84392,-4.62 14.8824,-8.4 15.64106,-8.4 2.4559,0 6.30215,3.922142 6.30215,6.426504 0,3.4405 -2.48959,5.560661 -15.40454,13.118681 l -11.80454,6.90819 0.20454,67.258344 0.20453,67.25833 12.4,7.14022 c 6.82001,3.92712 12.85001,7.73767 13.40001,8.46788 1.49526,1.98521 1.20904,5.34032 -0.65807,7.71397 -2.88846,3.67209 -5.26631,2.9681 -21.55341,-6.38111 z M 128.8,227.2 c -1.57207,-1.57207 -1.6,-2.66666 -1.6,-62.71137 0,-57.04434 0.0932,-61.22032 1.4,-62.74841 2.20798,-2.581797 53.05855,-32.140219 55.29215,-32.140219 2.27074,0 29.39157,15.272499 31.50786,17.742959 1.30962,1.528794 1.4,6.040376 1.4,69.88761 v 68.25331 l -2.10789,1.65806 c -2.85306,2.24422 -6.29933,2.12357 -8.72848,-0.30557 l -1.96363,-1.96364 -0.0148,-65.03636 -0.0149,-65.036368 -9.9855,-5.758617 -9.9855,-5.758617 -21.99811,12.958617 -21.9981,12.958615 -0.002,57.69212 c -0.002,57.15303 -0.017,57.71181 -1.65961,59.8 -2.11542,2.68932 -7.09543,2.95439 -9.54194,0.50788 z m 26.80001,-72.16625 c -3.39536,-1.94724 -3.54814,-2.79971 -3.57456,-19.94512 -0.0225,-14.59109 0.13738,-16.7018 1.37456,-18.14876 2.18685,-2.55765 30.11012,-18.539868 32.39187,-18.539868 1.11698,0 2.88076,0.687593 3.9195,1.527985 1.86977,1.512733 1.89105,1.708343 2.13112,19.593863 l 0.2425,18.06589 -2.00613,2.00613 c -2.62892,2.62892 -6.73873,2.70998 -9.11571,0.17981 -1.55361,-1.65375 -1.73688,-2.85419 -1.93945,-12.70369 l -0.2237,-10.87735 -7,4.0966 -7,4.0966 v 14.14902 14.14901 l -2.10789,1.65807 c -2.34453,1.84421 -4.68467,2.07248 -7.09211,0.69181 z"
       id="path1" />
  </g>
</svg>
